<svg width="68" height="94" viewBox="0 0 68 94" fill="none" xmlns="http://www.w3.org/2000/svg">
<path d="M0.375 58.625C0.375 35.4583 14.0833 16.2292 41.5 0.9375L47.5 8.875C32.4167 16.2083 21.7083 26.1875 15.375 38.8125C20.8333 36.6042 27.4167 35.5 35.125 35.5C56.5417 35.5 67.25 44.875 67.25 63.625C67.25 83.625 55.9375 93.625 33.3125 93.625C11.3542 93.625 0.375 81.9583 0.375 58.625ZM11.3125 58.25C11.3125 75.5833 18.8333 84.25 33.875 84.25C48.5833 84.25 55.9375 77.375 55.9375 63.625C55.9375 51.125 48.8125 44.875 34.5625 44.875C25.6458 44.875 18.4792 45.875 13.0625 47.875C11.8958 50.375 11.3125 53.8333 11.3125 58.25Z" fill="black"/>
</svg>
