<?xml version="1.0" standalone="no"?>
<!DOCTYPE svg PUBLIC "-//W3C//DTD SVG 20010904//EN"
 "http://www.w3.org/TR/2001/REC-SVG-20010904/DTD/svg10.dtd">
<svg version="1.0" xmlns="http://www.w3.org/2000/svg"
 width="300.000000pt" height="300.000000pt" viewBox="0 0 300.000000 300.000000"
 preserveAspectRatio="xMidYMid meet">
<metadata>
Created by potrace 1.14, written by Peter Selinger 2001-2017
</metadata>
<g transform="translate(0.000000,300.000000) scale(0.100000,-0.100000)"
fill="#000000" stroke="none">
<path d="M74 2953 c-63 -21 -75 -72 -27 -108 11 -8 13 -125 10 -655 -2 -355
-4 -652 -4 -660 0 -8 2 -348 3 -754 2 -600 5 -740 16 -747 7 -5 660 -9 1451
-9 1424 0 1437 0 1457 20 25 25 25 41 0 73 -20 25 -20 36 -16 719 2 381 3 702
3 713 -6 107 1 1317 7 1338 6 21 4 33 -9 47 -18 20 -39 20 -1417 20 -770 0
-1407 4 -1416 8 -10 5 -34 3 -58 -5z"/>
</g>
</svg>
