<svg width="118" height="91" viewBox="0 0 118 91" fill="none" xmlns="http://www.w3.org/2000/svg">
<path d="M9.75 90V11.8125H0.375V6.25L21.3125 0V90H9.75ZM53.5625 45.0625C53.5625 69.1875 62.375 81.25 80 81.25C97.1667 81.25 105.75 69.1875 105.75 45.0625C105.75 21.2708 97.1667 9.375 80 9.375C62.375 9.375 53.5625 21.2708 53.5625 45.0625ZM41.375 45.4375C41.375 15.1458 54.25 0 80 0C105.292 0 117.938 15.1458 117.938 45.4375C117.938 75.5625 105.292 90.625 80 90.625C54.25 90.625 41.375 75.5625 41.375 45.4375Z" fill="black"/>
</svg>
