<svg width="103" height="91" viewBox="0 0 103 91" fill="none" xmlns="http://www.w3.org/2000/svg">
<path d="M10.1875 90V11.8125H0.8125V6.25L21.75 0V90H10.1875ZM44.625 0.625H98.625V10H54.5L53 37.625C57.875 36.7083 63 36.25 68.375 36.25C90.875 36.25 102.125 44.7917 102.125 61.875C102.125 81.0417 90.4583 90.625 67.125 90.625C59.2083 90.625 51.0833 89.375 42.75 86.875V76.875C51.0833 79.7917 59.4167 81.25 67.75 81.25C82.9583 81.25 90.5625 74.7917 90.5625 61.875C90.5625 51.0417 83.1667 45.625 68.375 45.625C59 45.625 50.4583 46.4583 42.75 48.125L44.625 0.625Z" fill="black"/>
</svg>
