<svg width="112" height="94" viewBox="0 0 112 94" fill="none" xmlns="http://www.w3.org/2000/svg">
<path d="M9.5 93V17.3125H0.125V10.5L26.0625 1.75V93H9.5ZM43.25 58.625C43.25 35.4583 57.5833 16.2292 86.25 0.9375L94.125 13.875C79.4583 20.5833 69.375 28.6875 63.875 38.1875C68.9167 36.3958 74.0417 35.5 79.25 35.5C101.083 35.5 112 44.6667 112 63C112 83.4167 100.271 93.625 76.8125 93.625C54.4375 93.625 43.25 81.9583 43.25 58.625ZM59.1875 58.25C59.1875 73.0833 65.25 80.5 77.375 80.5C89.5833 80.5 95.6875 74.6667 95.6875 63C95.6875 53.4167 90.0208 48.625 78.6875 48.625C72.2708 48.625 66.1458 49.625 60.3125 51.625C59.5625 53.2917 59.1875 55.5 59.1875 58.25Z" fill="black"/>
</svg>
