<svg width="108" height="94" viewBox="0 0 108 94" fill="none" xmlns="http://www.w3.org/2000/svg">
<path d="M9.5625 93V14.8125H0.1875V9.25L21.125 3V93H9.5625ZM40.5625 58.625C40.5625 35.4583 54.2708 16.2292 81.6875 0.9375L87.6875 8.875C72.6042 16.2083 61.8958 26.1875 55.5625 38.8125C61.0208 36.6042 67.6042 35.5 75.3125 35.5C96.7292 35.5 107.438 44.875 107.438 63.625C107.438 83.625 96.125 93.625 73.5 93.625C51.5417 93.625 40.5625 81.9583 40.5625 58.625ZM51.5 58.25C51.5 75.5833 59.0208 84.25 74.0625 84.25C88.7708 84.25 96.125 77.375 96.125 63.625C96.125 51.125 89 44.875 74.75 44.875C65.8333 44.875 58.6667 45.875 53.25 47.875C52.0833 50.375 51.5 53.8333 51.5 58.25Z" fill="black"/>
</svg>
