<svg width="58" height="91" viewBox="0 0 58 91" fill="none" xmlns="http://www.w3.org/2000/svg">
<path d="M0.8125 3.75C9.14583 1.25 17.4792 0 25.8125 0C47.2708 0 58 8.125 58 24.375C58 34.2083 54.0833 40.9792 46.25 44.6875C54.0833 48.2292 58 55 58 65C58 82.0833 47.2708 90.625 25.8125 90.625C17.4792 90.625 9.14583 89.375 0.8125 86.875V76.875C9.14583 79.7917 17.4792 81.25 25.8125 81.25C39.5625 81.25 46.4375 75.8333 46.4375 65C46.4375 54.5833 41.1875 49.375 30.6875 49.375H10.1875V40H30.5C41.125 40 46.4375 34.7917 46.4375 24.375C46.4375 14.375 39.5625 9.375 25.8125 9.375C17.4792 9.375 9.14583 10.8333 0.8125 13.75V3.75Z" fill="black"/>
</svg>
