<svg width="65" height="92" viewBox="0 0 65 92" fill="none" xmlns="http://www.w3.org/2000/svg">
<path d="M0 64.5C0 55.2083 4.41667 48.5208 13.25 44.4375C6.08333 40.0625 2.5 33.125 2.5 23.625C2.5 8.375 12.5 0.75 32.5 0.75C52.5 0.75 62.5 8.375 62.5 23.625C62.5 33.125 58.8125 40.0625 51.4375 44.4375C60.4792 48.5208 65 55.2083 65 64.5C65 82.5833 54.1667 91.625 32.5 91.625C10.8333 91.625 0 82.5833 0 64.5ZM32.8125 39.75C44.8958 39.75 50.9375 34.7917 50.9375 24.875C50.9375 15.2083 44.625 10.375 32 10.375C20.0417 10.375 14.0625 15.2083 14.0625 24.875C14.0625 34.7917 20.3125 39.75 32.8125 39.75ZM32.8125 82.25C46.5625 82.25 53.4375 76.4583 53.4375 64.875C53.4375 54.375 46.2917 49.125 32 49.125C18.375 49.125 11.5625 54.375 11.5625 64.875C11.5625 76.4583 18.6458 82.25 32.8125 82.25Z" fill="black"/>
</svg>
