<svg width="99" height="91" viewBox="0 0 99 91" fill="none" xmlns="http://www.w3.org/2000/svg">
<path d="M10 90V11.8125H0.625V6.25L21.5625 0V90H10ZM41 3.75C49.3333 1.25 57.6667 0 66 0C87.4583 0 98.1875 8.125 98.1875 24.375C98.1875 34.2083 94.2708 40.9792 86.4375 44.6875C94.2708 48.2292 98.1875 55 98.1875 65C98.1875 82.0833 87.4583 90.625 66 90.625C57.6667 90.625 49.3333 89.375 41 86.875V76.875C49.3333 79.7917 57.6667 81.25 66 81.25C79.75 81.25 86.625 75.8333 86.625 65C86.625 54.5833 81.375 49.375 70.875 49.375H50.375V40H70.6875C81.3125 40 86.625 34.7917 86.625 24.375C86.625 14.375 79.75 9.375 66 9.375C57.6667 9.375 49.3333 10.8333 41 13.75V3.75Z" fill="black"/>
</svg>
