<svg width="106" height="93" viewBox="0 0 106 93" fill="none" xmlns="http://www.w3.org/2000/svg">
<path d="M10.3125 92V16.3125H0.9375V9.5L26.875 0.75V92H10.3125ZM48.75 2.625H102.125V15.75H63L61.5 37.75C63.875 36.8333 67.3333 36.375 71.875 36.375C94.375 36.375 105.625 45.5417 105.625 63.875C105.625 83.0417 93.9583 92.625 70.625 92.625C62.2917 92.625 53.9583 91.375 45.625 88.875V75.125C53.9583 78.0417 62.5 79.5 71.25 79.5C83.125 79.5 89.0625 74.2917 89.0625 63.875C89.0625 54.2917 83.3333 49.5 71.875 49.5C62.5 49.5 53.75 50.5417 45.625 52.625L48.75 2.625Z" fill="black"/>
</svg>
