<svg width="60" height="91" viewBox="0 0 60 91" fill="none" xmlns="http://www.w3.org/2000/svg">
<path d="M2.4375 0.625H56.4375V10H12.3125L10.8125 37.625C15.6875 36.7083 20.8125 36.25 26.1875 36.25C48.6875 36.25 59.9375 44.7917 59.9375 61.875C59.9375 81.0417 48.2708 90.625 24.9375 90.625C17.0208 90.625 8.89583 89.375 0.5625 86.875V76.875C8.89583 79.7917 17.2292 81.25 25.5625 81.25C40.7708 81.25 48.375 74.7917 48.375 61.875C48.375 51.0417 40.9792 45.625 26.1875 45.625C16.8125 45.625 8.27083 46.4583 0.5625 48.125L2.4375 0.625Z" fill="black"/>
</svg>
