<svg width="70" height="94" viewBox="0 0 70 94" fill="none" xmlns="http://www.w3.org/2000/svg">
<path d="M0.6875 58.625C0.6875 35.4583 15.0208 16.2292 43.6875 0.9375L51.5625 13.875C36.8958 20.5833 26.8125 28.6875 21.3125 38.1875C26.3542 36.3958 31.4792 35.5 36.6875 35.5C58.5208 35.5 69.4375 44.6667 69.4375 63C69.4375 83.4167 57.7083 93.625 34.25 93.625C11.875 93.625 0.6875 81.9583 0.6875 58.625ZM16.625 58.25C16.625 73.0833 22.6875 80.5 34.8125 80.5C47.0208 80.5 53.125 74.6667 53.125 63C53.125 53.4167 47.4583 48.625 36.125 48.625C29.7083 48.625 23.5833 49.625 17.75 51.625C17 53.2917 16.625 55.5 16.625 58.25Z" fill="black"/>
</svg>
