<svg width="68" height="94" viewBox="0 0 68 94" fill="none" xmlns="http://www.w3.org/2000/svg">
<path d="M67.25 35.4375C67.25 58.6042 53.5417 77.8333 26.125 93.125L20.125 85.1875C35.2083 77.8542 45.9167 67.875 52.25 55.25C46.7917 57.875 40.2083 59.1875 32.5 59.1875C11.0833 59.1875 0.375 49.6042 0.375 30.4375C0.375 10.4375 11.6875 0.4375 34.3125 0.4375C56.2708 0.4375 67.25 12.1042 67.25 35.4375ZM56.3125 35.8125C56.3125 18.4792 48.7917 9.8125 33.75 9.8125C19.0417 9.8125 11.6875 16.6875 11.6875 30.4375C11.6875 42.9375 18.8125 49.1875 33.0625 49.1875C41.9792 49.1875 49.1458 48.1875 54.5625 46.1875C55.7292 43.6875 56.3125 40.2292 56.3125 35.8125Z" fill="black"/>
</svg>
