<svg width="122" height="93" viewBox="0 0 122 93" fill="none" xmlns="http://www.w3.org/2000/svg">
<path d="M9.375 92V16.3125H0V9.5L25.9375 0.75V92H9.375ZM59.6875 47.0625C59.6875 67.8542 67.25 78.25 82.375 78.25C97.0417 78.25 104.375 67.8542 104.375 47.0625C104.375 26.6042 97.0417 16.375 82.375 16.375C67.25 16.375 59.6875 26.6042 59.6875 47.0625ZM42.5 47.4375C42.5 17.1458 55.7917 2 82.375 2C108.5 2 121.562 17.1458 121.562 47.4375C121.562 77.5625 108.5 92.625 82.375 92.625C55.7917 92.625 42.5 77.5625 42.5 47.4375Z" fill="black"/>
</svg>
