<svg width="104" height="93" viewBox="0 0 104 93" fill="none" xmlns="http://www.w3.org/2000/svg">
<path d="M9.6875 92V16.3125H0.3125V9.5L26.25 0.75V92H9.6875ZM43.4375 5.75C51.7708 3.25 60.5208 2 69.6875 2C91.9792 2 103.125 10.125 103.125 26.375C103.125 36.2083 99.2083 42.9792 91.375 46.6875C99.2083 50.2292 103.125 57 103.125 67C103.125 84.0833 91.9792 92.625 69.6875 92.625C60.5208 92.625 51.7708 91.375 43.4375 88.875V73.875C51.7708 76.7917 60.5208 78.25 69.6875 78.25C80.9375 78.25 86.5625 74.5 86.5625 67C86.5625 58.25 82.5625 53.875 74.5625 53.875H52.8125V39.5H74.375C82.5 39.5 86.5625 35.125 86.5625 26.375C86.5625 19.7083 80.9375 16.375 69.6875 16.375C60.5208 16.375 51.7708 17.8333 43.4375 20.75V5.75Z" fill="black"/>
</svg>
