<svg width="61" height="91" viewBox="0 0 61 91" fill="none" xmlns="http://www.w3.org/2000/svg">
<path d="M0.875 3.75C9.20833 1.25 17.9583 0 27.125 0C49.4167 0 60.5625 8.125 60.5625 24.375C60.5625 34.2083 56.6458 40.9792 48.8125 44.6875C56.6458 48.2292 60.5625 55 60.5625 65C60.5625 82.0833 49.4167 90.625 27.125 90.625C17.9583 90.625 9.20833 89.375 0.875 86.875V71.875C9.20833 74.7917 17.9583 76.25 27.125 76.25C38.375 76.25 44 72.5 44 65C44 56.25 40 51.875 32 51.875H10.25V37.5H31.8125C39.9375 37.5 44 33.125 44 24.375C44 17.7083 38.375 14.375 27.125 14.375C17.9583 14.375 9.20833 15.8333 0.875 18.75V3.75Z" fill="black"/>
</svg>
