<svg width="61" height="91" viewBox="0 0 61 91" fill="none" xmlns="http://www.w3.org/2000/svg">
<path d="M3.1875 0.625H56.5625V13.75H17.4375L15.9375 35.75C18.3125 34.8333 21.7708 34.375 26.3125 34.375C48.8125 34.375 60.0625 43.5417 60.0625 61.875C60.0625 81.0417 48.3958 90.625 25.0625 90.625C16.7292 90.625 8.39583 89.375 0.0625 86.875V73.125C8.39583 76.0417 16.9375 77.5 25.6875 77.5C37.5625 77.5 43.5 72.2917 43.5 61.875C43.5 52.2917 37.7708 47.5 26.3125 47.5C16.9375 47.5 8.1875 48.5417 0.0625 50.625L3.1875 0.625Z" fill="black"/>
</svg>
