<svg width="71" height="92" viewBox="0 0 71 92" fill="none" xmlns="http://www.w3.org/2000/svg">
<path d="M0.5 64.5C0.5 55.2083 4.91667 48.3125 13.75 43.8125C6.58333 39.8542 3 33.125 3 23.625C3 8.375 13.8333 0.75 35.5 0.75C57.1667 0.75 68 8.375 68 23.625C68 33.125 64.3125 39.8542 56.9375 43.8125C65.9792 48.3125 70.5 55.2083 70.5 64.5C70.5 82.5833 59.0417 91.625 36.125 91.625C12.375 91.625 0.5 82.5833 0.5 64.5ZM35.8125 37.25C46.2292 37.25 51.4375 33.3333 51.4375 25.5C51.4375 18.75 46.1667 15.375 35.625 15.375C24.9167 15.375 19.5625 18.75 19.5625 25.5C19.5625 33.3333 24.9792 37.25 35.8125 37.25ZM36.4375 77.25C48.1042 77.25 53.9375 73.125 53.9375 64.875C53.9375 56.0417 47.8333 51.625 35.625 51.625C23.25 51.625 17.0625 56.0417 17.0625 64.875C17.0625 73.125 23.5208 77.25 36.4375 77.25Z" fill="black"/>
</svg>
