<svg width="69" height="94" viewBox="0 0 69 94" fill="none" xmlns="http://www.w3.org/2000/svg">
<path d="M68.9375 35.8125C68.9375 58.9792 54.6042 78.2083 25.9375 93.5L18.0625 80.5625C32.3125 73.8542 42.3958 65.5417 48.3125 55.625C43.2708 57.8333 38.1458 58.9375 32.9375 58.9375C11.1042 58.9375 0.1875 49.5625 0.1875 30.8125C0.1875 10.8125 11.9167 0.8125 35.375 0.8125C57.75 0.8125 68.9375 12.4792 68.9375 35.8125ZM53 36.1875C53 21.3542 46.9375 13.9375 34.8125 13.9375C22.6042 13.9375 16.5 19.5625 16.5 30.8125C16.5 40.8125 22.1667 45.8125 33.5 45.8125C39.9167 45.8125 46.0417 44.8125 51.875 42.8125C52.625 41.1458 53 38.9375 53 36.1875Z" fill="black"/>
</svg>
